<svg width="20" height="24" viewBox="0 0 20 24" fill="none" xmlns="http://www.w3.org/2000/svg">
<path d="M5.99248 8.31821V7.44265L4.32908 5.52764H2.66569H1.61555H0V5.05632V3.50228H1.52801H2.57814H4.24154L5.99248 1.75101V0.875295L6.69286 -0.000342369H10.0196H12.9962H16.4981H19.2996L20 0.875295V8.31821L19.2996 9.19385H12.9962H6.69286L5.99248 8.31821Z" fill="#00FE19"/>
<path d="M0 5.52734V3.51395L1.57303 3.95415V5.07786L0 5.52734Z" fill="white"/>
<path d="M9.06297 9.104H15.1913L14.7535 10.4174V16.1087L14.9724 16.9843L16.0667 17.8598H8.1875L9.28184 16.9843L9.50071 16.1087V10.4174L9.06297 9.104Z" fill="#00FE19"/>
<path d="M19.5605 17.8569V23.5482H4.67754V18.8917L5.55301 17.8569H19.5605Z" fill="#00FE19"/>
<rect x="8.0957" y="6.65088" width="9.43819" height="0.449483" fill="white"/>
<rect x="8.0957" y="4.17725" width="9.43819" height="0.449483" fill="white"/>
<rect x="8.0957" y="1.9292" width="9.43819" height="0.449483" fill="white"/>
</svg>
